<svg xmlns="http://www.w3.org/2000/svg" type="image/svg+xml" viewBox="0 0 128 128">
  <path d="M115.4 31.514c-.662-1.89-2.583-3.003-4.568-2.648L64.218 37.108 17.16 28.866c-1.985-.355-3.906.758-4.568 2.648L.28 66.864c-.456 1.303.04 2.748 1.157 3.52l61.328 42.506c.866.6 2.003.6 2.869 0l61.328-42.506c1.117-.773 1.613-2.217 1.157-3.52l-12.312-35.35v0z" fill="#41d1ff"/>
  <path d="M127.72 66.864L115.4 31.514c-.662-1.89-2.583-3.003-4.568-2.648L64.218 37.108v75.78l61.328-42.506c1.117-.773 1.613-2.217 1.157-3.52z" fill="#bd34fe"/>
  <path d="M64.218 37.108v75.78L2.855 70.384c1.117.773 2.695.69 3.73-.205l57.633-49.426v-.004h.001l-.001.004z" fill="#ffea83"/>
  <path d="M64.218 37.108l-57.632 49.42c-1.036.89-2.614.978-3.73.205L17.16 28.866c-1.985-.355-3.906.758-4.568 2.648L.28 66.864c-.456 1.303.04 2.748 1.157 3.52l2.35 1.63L64.218 37.108z" fill="#ffba00"/>
</svg>